<svg width="51" height="42" viewBox="0 0 51 42" fill="none" xmlns="http://www.w3.org/2000/svg">
<path fill-rule="evenodd" clip-rule="evenodd" d="M0 35.4403C7.63865 31.7961 11.4579 27.5141 11.4579 22.5944C8.20211 22.2299 5.50983 20.9393 3.38102 18.7223C1.25222 16.5054 0.187836 13.9393 0.187836 11.0239C0.187836 7.92624 1.22092 5.31454 3.28711 3.18872C5.3533 1.0629 7.95166 0 11.0823 0C14.5885 0 17.6252 1.38177 20.1922 4.14534C22.7593 6.90891 24.0429 10.2646 24.0429 14.2126C24.0429 26.0565 17.2183 35.3188 3.56886 42L0 35.4403ZM26.9571 35.4403C34.6584 31.7961 38.509 27.5141 38.509 22.5944C35.1906 22.2299 32.467 20.9393 30.3382 18.7223C28.2094 16.5054 27.145 13.9393 27.145 11.0239C27.145 7.92624 28.1937 5.31454 30.2912 3.18872C32.3887 1.0629 35.0027 0 38.1333 0C41.6396 0 44.6606 1.38177 47.1963 4.14534C49.7321 6.90891 51 10.2646 51 14.2126C51 26.0565 44.2067 35.3188 30.6199 42L26.9571 35.4403Z" fill="white"/>
</svg>
